<?xml version="1.0"?>
<svg xmlns="http://www.w3.org/2000/svg" height="512px" viewBox="-150 1 511 511.999" width="512px" class=""><g><path d="m202.464844.0078125c-5.523438 0-10 4.4882815-10 10.0117185 0 31.265625-12.121094 60.605469-34.125 82.609375l-26.417969 26.417969-4.976563-4.976563c-.214843-.242187-.429687-.480468-.660156-.710937l-5.660156-5.660156 26.390625-26.390625c18.976563-18.976563 29.429687-44.289063 29.4375-71.273438 0-.691406-.070313-1.371094-.203125-2.023437-.925781-4.550781-4.941406-7.996094-9.761719-8.011719-.015625 0-.027343 0-.039062 0-5.492188 0-9.957031 4.453125-10 9.949219v.152343c-.011719 11.71875-2.496094 23.027344-7.167969 33.355469h-85.605469c-4.683593-10.339843-7.164062-21.660156-7.164062-33.363281 0-.003906 0-.011719 0-.019531v-.003907c0-.003906 0-.007812 0-.011718 0 0 0-.003906 0-.007813v-.003906c0-.5-.035157-.992187-.105469-1.472656 0-.003907 0-.007813-.003906-.011719 0-.003906 0-.003906 0-.007812 0 0 0 0 0-.003907-.703125-4.789062-4.808594-8.4999998-9.796875-8.54687475-5.496094-.01171875-10.03125 4.38671875-10.09375 9.90234375 0 .058594-.003907.117188 0 .175781.015625 26.96875 10.46875 52.261719 29.433593 71.226563l46.050782 46.050781c.109375.128906.222656.253906.339844.378906.082031.089844.167968.179688.253906.265625l45.699218 45.699219c12.902344 12.898437 22.347657 28.167969 28.082032 45.382813 1.398437 4.191406 5.296875 6.84375 9.488281 6.84375 1.046875 0 2.109375-.167969 3.160156-.515626 5.238281-1.746093 8.070313-7.40625 6.328125-12.648437-6.722656-20.1875-17.796875-38.085937-32.917968-53.207031l-26.367188-26.367188 26.417969-26.417968c25.769531-25.769532 39.96875-60.109376 39.980469-96.714844 0-.007813 0-.011719 0-.015625v-.023438-.003906c0-.007813 0-.011719 0-.015625 0-.007812 0-.011719 0-.019531-.003907-5.515625-4.476563-9.9726565-9.996094-9.9726565zm-125.832032 63.4492185h59.703126c-1.117188 1.261719-2.257813 2.507813-3.460938 3.707031l-26.394531 26.394532-26.390625-26.394532c-1.199219-1.199218-2.34375-2.445312-3.457032-3.707031zm0 0" data-original="#000000" class="active-path" data-old_color="#4797ff" fill="#4797ff"/><path d="m146.089844 378.96875 26.34375-26.347656c15.117187-15.117188 26.191406-33.019532 32.914062-53.207032 1.746094-5.238281-1.085937-10.902343-6.328125-12.644531-5.238281-1.75-10.902343 1.085938-12.644531 6.328125-5.734375 17.210938-15.179688 32.480469-28.082031 45.382813l-26.351563 26.351562-11.328125-11.320312 26.355469-26.351563c18.957031-18.957031 29.394531-44.195312 29.394531-71.070312s-10.4375-52.113282-29.394531-71.066406l-46.027344-46.03125c-.109375-.121094-.21875-.242188-.328125-.363282-.085937-.09375-.175781-.1875-.265625-.277344l-45.722656-45.722656c-22.007812-22.003906-34.125-51.34375-34.125-82.632812 0-.015625 0-.03125 0-.046875-.027344-5.5-4.492188-9.9414065-10-9.9414065-5.523438 0-10 4.4882815-10 10.0117185v.015625.003906.007813c.007812 36.601563 14.207031 70.949219 39.980469 96.726563l26.394531 26.390624-26.394531 26.394532c-25.746094 25.746094-39.925781 60.027344-39.925781 96.53125s14.179687 70.785156 39.929687 96.535156l26.28125 26.261719-26.285156 26.28125c-25.78125 25.785156-39.980469 60.167969-39.980469 96.8125 0 5.523437 4.476562 10 10 10s10-4.476563 10-10c0-31.304688 12.117188-60.660157 34.125-82.667969l26.285156-26.289062 11.328125 11.320312-26.292969 26.289062c-18.9375 18.941407-29.386718 44.210938-29.433593 71.246094-.011719.941406.113281 1.859375.347656 2.730469 1.152344 4.242187 5.019531 7.371094 9.617187 7.390625h.035157c5.460937 0 9.917969-4.40625 10-9.871094 0-.097656 0-.195312 0-.292968.019531-11.6875 2.492187-22.964844 7.136719-33.265626h85.550781c4.679687 10.339844 7.160156 21.65625 7.164062 33.378907 0 .765625.082031 1.507812.242188 2.222656.996093 4.460937 4.964843 7.808594 9.722656 7.828125h.039063c5.488281 0 9.957031-4.449219 9.996093-9.945312 0-.054688 0-.109376 0-.164063-.023437-26.9375-10.476562-52.210937-29.4375-71.171875l-92.300781-92.238281c-21.96875-21.96875-34.070312-51.230469-34.070312-82.390625s12.101562-60.421875 34.070312-82.390625l26.390625-26.390625 4.976563 4.976562c.210937.238282.429687.476563.660156.707032l5.660156 5.660156-26.367188 26.371094c-39.1875 39.1875-39.1875 102.949218.003907 142.136718l92.300781 92.238282c22.007812 22.007812 34.125 51.335937 34.125 82.582031 0 5.523437 4.480469 10 10 10 5.523438 0 10-4.476563 10-10 0-36.589844-14.199219-70.941407-39.984375-96.726563zm-9.84375 69.601562h-59.691406c1.140624-1.292968 2.304687-2.566406 3.535156-3.792968l26.296875-26.296875 26.402343 26.382812c1.199219 1.203125 2.34375 2.445313 3.457032 3.707031zm12.929687-225.835937c3.328125 7.320313 5.535157 15.136719 6.539063 23.234375h-98.511719c1-7.957031 3.171875-15.789062 6.542969-23.214844h85.003906c.144531 0 .285156-.015625.425781-.019531zm-92 43.234375h98.570313c-.980469 8.089844-3.160156 15.898438-6.453125 23.21875h-85.648438c-3.34375-7.429688-5.496093-15.261719-6.46875-23.21875zm49.28125-93.171875 26.371094 26.367187c1.164063 1.164063 2.273437 2.367188 3.355469 3.589844h-59.453125c1.082031-1.21875 2.191406-2.421875 3.359375-3.589844zm-29.929687 136.390625h59.863281c-1.148437 1.304688-2.324219 2.589844-3.5625 3.828125l-26.359375 26.359375-26.378906-26.359375c-1.242188-1.242187-2.417969-2.527344-3.5625-3.828125zm0 0" data-original="#000000" class="active-path" data-old_color="#4797ff" fill="#4797ff"/><path d="m209.433594 263.15625c1.859375-1.859375 2.929687-4.4375 2.929687-7.070312 0-2.628907-1.070312-5.207032-2.929687-7.070313-1.863282-1.859375-4.441406-2.929687-7.070313-2.929687-2.640625 0-5.210937 1.070312-7.070312 2.929687-1.863281 1.863281-2.929688 4.441406-2.929688 7.070313 0 2.640624 1.066407 5.210937 2.929688 7.070312 1.859375 1.859375 4.429687 2.929688 7.070312 2.929688 2.628907 0 5.207031-1.070313 7.070313-2.929688zm0 0" data-original="#000000" class="active-path" data-old_color="#4797ff" fill="#4797ff"/></g> </svg>
