<?xml version="1.0"?>
<svg xmlns="http://www.w3.org/2000/svg" height="512px" viewBox="0 0 512 512.00013" width="512px"><g><path d="m70 452c-5.523438 0-10 4.476562-10 10v40c0 5.523438 4.476562 10 10 10h352c48.785156 0 90-42.589844 90-93 0-39.601562-25.4375-74.375-60-87.464844v-35.535156c0-5.523438-4.476562-10-10-10h-30v-40h30c5.523438 0 10-4.476562 10-10v-40c0-5.523438-4.476562-10-10-10h-126.089844c2.132813-2.285156 4.214844-4.761719 6.226563-7.457031 10.929687-14.660157 18.761719-33.589844 22.046875-53.300781 7.019531-42.113282-16.5-81.78125-54.613282-81.78125-7.335937 0-14.480468 1.414062-21.253906 4.15625 3.046875-11.625 8.984375-22.394532 17.132813-30.546876 3.90625-3.902343 3.90625-10.234374 0-14.140624-3.902344-3.90625-10.234375-3.90625-14.140625 0-12.195313 12.195312-20.589844 28.8125-23.816406 46.390624-7.878907-3.855468-16.335938-5.859374-25.0625-5.859374-38.929688 0-61.480469 40.601562-54.613282 81.785156 3.285156 19.710937 11.113282 38.636718 22.046875 53.300781 2.011719 2.695313 4.089844 5.167969 6.222657 7.457031h-116.085938c-23.074219 0-45.03125 9.96875-60.234375 27.347656-3.636719 4.15625-3.214844 10.476563.945313 14.113282 4.15625 3.632812 10.472656 3.210937 14.109374-.945313 11.40625-13.039062 27.871094-20.519531 45.179688-20.519531h352v20h-352c-22.054688 0-40 17.945312-40 40s17.945312 40 40 40h352v20h-352c-23.242188 0-44.453125-13.25-54.441406-34.742188-2.328125-5.007812-8.273438-7.179687-13.285156-4.851562-5.007813 2.328125-7.179688 8.273438-4.851563 13.285156 10.21875 21.988282 29.503906 37.875 52.578125 43.78125v32.527344c0 5.523438 4.476562 10 10 10h30v66zm117.542969-330.042969c-4.582031-27.511719 8.269531-58.496093 34.886719-58.496093 8.328124 0 16.402343 2.886718 23.570312 8.382812v6.535156c0 5.523438 4.476562 10 10 10s10-4.476562 10-10v-6.535156c7.167969-5.496094 15.242188-8.382812 23.570312-8.382812 26.765626 0 39.472657 30.96875 34.886719 58.496093-5.894531 35.355469-27.714843 61.773438-43.285156 61.773438-5.972656 0-11.863281-3.417969-17.503906-10.152344-1.902344-2.265625-4.707031-3.578125-7.667969-3.578125-2.957031 0-5.765625 1.3125-7.664062 3.578125-5.644532 6.738281-11.535157 10.152344-17.507813 10.152344-15.570313 0-37.390625-26.417969-43.285156-61.773438zm-127.542969 144.042969c0-11.027344 8.972656-20 20-20h312v40h-312c-11.027344 0-20-8.972656-20-20zm20 80h342c37.945312 0 70 33.429688 70 73s-32.054688 73-70 73h-342v-20h342c28.113281 0 50-25.882812 50-53 0-27.113281-21.875-53-50-53h-342zm40 40h302c15.699219 0 30 15.730469 30 33s-14.300781 33-30 33h-302zm0 0" data-original="#000000" class="active-path" data-old_color="#4797ff" fill="#4797ff"/><path d="m20 256c0 5.523438-4.476562 10-10 10s-10-4.476562-10-10 4.476562-10 10-10 10 4.476562 10 10zm0 0" data-original="#000000" class="active-path" data-old_color="#4797ff" fill="#4797ff"/></g> </svg>
