<?xml version="1.0"?>
<svg xmlns="http://www.w3.org/2000/svg" height="512px" viewBox="0 0 512.01516 512" width="512px"><g><path d="m460.808594 320.585938v-13.371094c0-14.136719-11.460938-25.601563-25.601563-25.601563h-17.066406c-14.113281 0-25.5625 11.421875-25.601563 25.535157-16.773437-2.203126-34.132812-3.917969-51.199218-5.199219v-11.800781c0-14.136719-11.460938-25.601563-25.597656-25.601563h-17.066407c-14.140625 0-25.601562 11.464844-25.601562 25.601563v8.679687c-5.972657-.09375-11.65625-.144531-17.066407-.144531-5.410156 0-11.09375.050781-17.066406.144531v-8.679687c0-14.136719-11.460937-25.601563-25.601562-25.601563h-17.066406c-14.136719 0-25.597657 11.464844-25.597657 25.601563v11.800781c-17.066406 1.28125-34.433593 2.996093-51.203125 5.199219-.035156-14.113282-11.488281-25.535157-25.597656-25.535157h-17.066406c-14.140625 0-25.601563 11.464844-25.601563 25.601563v13.371094c-30.566406 8.976562-51.1992185 21.257812-51.1992185 37.828124v68.269532c.0195313 6.066406 3.2695315 11.667968 8.5312495 14.691406v10.90625c0 14.140625 11.464844 25.601562 25.601563 25.601562h10.105469c3.601562 10.191407 13.21875 17.019532 24.027344 17.066407h25.601562c4.410156-.027344 8.734375-1.203125 12.550781-3.414063 4.667969 7.421875 12.816407 11.929688 21.582031 11.945313h34.132813c4.410156-.023438 8.738281-1.199219 12.554687-3.410157 4.664063 7.417969 12.8125 11.929688 21.578126 11.945313h42.667968c6.316406-.023437 12.402344-2.394531 17.066406-6.65625 4.664063 4.261719 10.75 6.632813 17.066407 6.65625h42.667969c8.765624-.015625 16.910156-4.527344 21.578124-11.945313 3.816407 2.210938 8.144532 3.386719 12.554688 3.410157h34.132812c8.765626-.015625 16.914063-4.523438 21.582032-11.945313 3.8125 2.210938 8.140625 3.386719 12.550781 3.414063h25.601563c10.808593-.046875 20.425781-6.875 24.027343-17.066407h10.105469c14.136719 0 25.597656-11.460937 25.597656-25.601562v-10.90625c5.265625-3.023438 8.515625-8.625 8.535156-14.691406v-68.269532c0-16.570312-20.632812-28.851562-51.199218-37.828124zm-51.199219-13.371094c0-4.710938 3.820313-8.53125 8.53125-8.53125h17.066406c4.714844 0 8.535157 3.820312 8.535157 8.53125v8.910156c-10.683594-2.476562-22.1875-4.644531-34.132813-6.519531zm-119.46875-17.066406c0-4.710938 3.820313-8.535157 8.535156-8.535157h17.066407c4.710937 0 8.53125 3.824219 8.53125 8.535157v10.648437c-11.75-.707031-23.210938-1.210937-34.132813-1.550781zm-102.398437 0c0-4.710938 3.820312-8.535157 8.53125-8.535157h17.066406c4.714844 0 8.535156 3.824219 8.535156 8.535157v9.097656c-10.921875.339844-22.382812.851562-34.132812 1.550781zm-119.46875 17.066406c0-4.710938 3.820312-8.53125 8.535156-8.53125h17.066406c4.710938 0 8.53125 3.820312 8.53125 8.53125v2.390625c-11.945312 1.875-23.449219 4.042969-34.132812 6.519531zm187.734374 8.535156c154.597657 0 238.933594 28.160156 238.933594 42.664062v50.578126c-4.144531-3.761719-9.570312-5.800782-15.164062-5.699219-5.492188.015625-10.832032 1.8125-15.214844 5.117187-6.148438-10.847656-17.84375-17.347656-30.300781-16.84375-11.667969.027344-22.785157 4.96875-30.628907 13.613282-6.972656-11.378907-19.601562-18.042969-32.929687-17.375-13.542969-.003907-26.410156 5.921874-35.214844 16.210937-7.539062-13.054687-21.757812-20.78125-36.8125-20-17.171875.011719-33.195312 8.632813-42.667969 22.953125-9.472656-14.320312-25.496093-22.941406-42.667968-22.953125-15.070313-.785156-29.304688 6.957031-36.835938 20.035156-8.804687-10.292969-21.675781-16.214843-35.21875-16.210937-13.3125-.664063-25.925781 5.980468-32.902344 17.339844-7.84375-8.625-18.949218-13.550782-30.601562-13.578126-12.46875-.515624-24.175781 5.988282-30.328125 16.84375-4.382813-3.308593-9.722656-5.105468-15.214844-5.121093-5.589843-.105469-11.015625 1.917969-15.164062 5.667969v-50.578126c0-14.503906 84.335937-42.664062 238.933593-42.664062zm-230.398437 136.53125v-22.757812c0-1.527344.3125-9.164063 6.628906-9.164063 6.523438 1.0625 11.09375 7.015625 10.4375 13.59375v26.863281h-8.535156c-4.710937 0-8.53125-3.820312-8.53125-8.535156zm68.265625 25.601562h-25.601562c-4.710938 0-8.53125-3.820312-8.53125-8.535156v-42.664062c-.316407-4.867188 1.480468-9.636719 4.929687-13.085938 3.449219-3.449218 8.214844-5.246094 13.082031-4.929687 13.609375.015625 24.640625 11.042969 24.652344 24.652343v36.027344c0 4.714844-3.820312 8.535156-8.53125 8.535156zm68.265625 8.53125h-34.132813c-4.714843 0-8.535156-3.820312-8.535156-8.53125v-51.199218c-.285156-5.871094 1.921875-11.585938 6.074219-15.738282 4.15625-4.15625 9.871094-6.359374 15.738281-6.074218 16.226563.019531 29.375 13.171875 29.390625 29.398437v43.613281c0 4.710938-3.820312 8.53125-8.535156 8.53125zm76.800781 8.535157h-42.667968c-4.710938 0-8.53125-3.820313-8.53125-8.535157v-59.730468c-.335938-6.886719 2.257812-13.59375 7.128906-18.46875 4.875-4.875 11.582031-7.464844 18.46875-7.132813 18.851562 0 34.132812 15.28125 34.132812 34.132813v51.199218c0 4.714844-3.820312 8.535157-8.53125 8.535157zm85.332032-8.535157c0 4.714844-3.820313 8.535157-8.53125 8.535157h-42.667969c-4.710938 0-8.535157-3.820313-8.535157-8.535157v-51.199218c0-18.851563 15.285157-34.132813 34.136719-34.132813 6.882813-.332031 13.589844 2.257813 18.464844 7.132813s7.464844 11.582031 7.132813 18.46875zm68.265624-8.53125c0 4.710938-3.820312 8.53125-8.53125 8.53125h-34.132812c-4.714844 0-8.535156-3.820312-8.535156-8.53125v-43.613281c.015625-16.226562 13.164062-29.378906 29.390625-29.398437 5.867187-.285156 11.582031 1.917968 15.738281 6.074218 4.152344 4.152344 6.359375 9.867188 6.070312 15.738282zm59.734376-8.535156c0 4.714844-3.820313 8.535156-8.53125 8.535156h-25.601563c-4.710937 0-8.53125-3.820312-8.53125-8.535156v-36.027344c.011719-13.609374 11.042969-24.636718 24.652344-24.652343 4.867187-.316407 9.632812 1.480469 13.082031 4.929687 3.449219 3.449219 5.246094 8.21875 4.929688 13.085938zm34.132812-17.066406c0 4.714844-3.820312 8.535156-8.53125 8.535156h-8.535156v-26.863281c-.65625-6.578125 3.914062-12.53125 10.4375-13.59375 6.316406 0 6.628906 7.679687 6.628906 9.164063zm0 0" data-original="#000000" class="active-path" data-old_color="#000000" fill="#FFFDFD"/><path d="m508.746094 18.617188 2.699218-7.003907c1.691407-4.402343-.503906-9.34375-4.90625-11.035156-4.402343-1.691406-9.34375.503906-11.035156 4.90625l-2.6875 7.007813c-23.027344 59.148437-79.886718 98.199218-143.359375 98.457031h-186.882812c-63.476563-.25-120.347657-39.300781-143.375-98.457031l-2.6875-7.007813c-1.691407-4.402344-6.632813-6.597656-11.035157-4.90625-4.402343 1.691406-6.597656 6.632813-4.90625 11.035156l2.695313 7.003907c25.589844 65.722656 88.765625 109.109374 159.292969 109.398437h186.878906c70.535156-.28125 133.71875-43.671875 159.308594-109.398437zm0 0" data-original="#000000" class="active-path" data-old_color="#000000" fill="#FFFDFD"/><path d="m204.808594 247.480469c4.710937 0 8.53125-3.820313 8.53125-8.53125v-64.734375l11.035156 11.035156c3.347656 3.230469 8.671875 3.1875 11.960938-.105469 3.292968-3.292969 3.339843-8.613281.105468-11.960937l-25.601562-25.601563c-.074219-.078125-.179688-.101562-.253906-.171875-.730469-.714844-1.578126-1.289062-2.511719-1.707031-.066407 0-.152344 0-.21875-.050781-.863281-.320313-1.769531-.5-2.691407-.527344-.285156 0-.566406.019531-.851562.050781-.714844.042969-1.421875.179688-2.097656.410157-.292969.082031-.578125.179687-.855469.296874-.949219.40625-1.816406.988282-2.558594 1.707032l-25.601562 25.601562c-3.234375 3.347656-3.1875 8.667969.105469 11.960938 3.289062 3.292968 8.613281 3.339844 11.960937.105468l11.007813-11.042968v64.734375c0 4.710937 3.820312 8.53125 8.535156 8.53125zm0 0" data-original="#000000" class="active-path" data-old_color="#000000" fill="#FFFDFD"/><path d="m307.207031 247.480469c4.714844 0 8.535157-3.820313 8.535157-8.53125v-64.734375l11.03125 11.035156c3.347656 3.230469 8.671874 3.1875 11.964843-.105469 3.289063-3.292969 3.335938-8.613281.101563-11.960937l-25.597656-25.601563c-.078126-.078125-.179688-.101562-.257813-.171875-.726563-.714844-1.578125-1.289062-2.507813-1.707031-.070312 0-.15625 0-.222656-.050781-.859375-.320313-1.769531-.5-2.6875-.527344-.285156 0-.570312.019531-.855468.050781-.714844.042969-1.417969.179688-2.097657.410157-.289062.082031-.574219.179687-.851562.296874-.953125.40625-1.820313.988282-2.5625 1.707032l-25.597657 25.601562c-3.234374 3.347656-3.1875 8.667969.101563 11.960938 3.292969 3.292968 8.613281 3.339844 11.964844.105468l11.007812-11.042968v64.734375c0 4.710937 3.820313 8.53125 8.53125 8.53125zm0 0" data-original="#000000" class="active-path" data-old_color="#000000" fill="#FFFDFD"/><path d="m426.675781 264.546875c4.710938 0 8.53125-3.820313 8.53125-8.53125v-64.734375l11.035157 11.035156c3.347656 3.230469 8.667968 3.1875 11.960937-.105468 3.292969-3.292969 3.339844-8.613282.105469-11.960938l-25.601563-25.601562c-.078125-.078126-.179687-.101563-.253906-.171876-.730469-.710937-1.578125-1.289062-2.511719-1.707031-.074218 0-.152344 0-.230468-.050781-.859376-.316406-1.761719-.496094-2.679688-.527344-.285156 0-.570312.019532-.851562.050782-.71875.042968-1.425782.179687-2.109376.410156-.28125.09375-.554687.171875-.851562.289062-.949219.410156-1.816406.988282-2.558594 1.707032l-25.601562 25.601562c-3.234375 3.347656-3.1875 8.667969.105468 11.960938 3.289063 3.292968 8.613282 3.335937 11.960938.105468l11.015625-11.035156v64.734375c0 4.710937 3.820313 8.53125 8.535156 8.53125zm0 0" data-original="#000000" class="active-path" data-old_color="#000000" fill="#FFFDFD"/><path d="m76.808594 264.546875c4.710937 0 8.53125-3.820313 8.53125-8.53125v-64.734375l11.035156 11.035156c3.347656 3.230469 8.671875 3.1875 11.960938-.105468 3.292968-3.292969 3.339843-8.613282.105468-11.960938l-25.601562-25.601562c-.074219-.078126-.179688-.101563-.253906-.171876-.730469-.710937-1.578126-1.289062-2.511719-1.707031-.066407 0-.152344 0-.230469-.050781-.855469-.320312-1.761719-.496094-2.679688-.519531-.28125-.003907-.566406.007812-.851562.042969-.71875.042968-1.425781.179687-2.109375.410156-1.28125.371094-2.453125 1.050781-3.410156 1.980468l-25.601563 25.597657c-3.234375 3.347656-3.1875 8.671875.105469 11.964843 3.289063 3.289063 8.613281 3.335938 11.960937.101563l11.015626-11.015625v64.734375c0 4.710937 3.820312 8.53125 8.535156 8.53125zm0 0" data-original="#000000" class="active-path" data-old_color="#000000" fill="#FFFDFD"/></g> </svg>
