<?xml version="1.0"?>
<svg xmlns="http://www.w3.org/2000/svg" height="512px" viewBox="0 -116 512 512" width="512px"><g><path d="m465.921875 11.121094c-139.554687-14.828125-280.289063-14.828125-419.84375 0-26.152344 2.667968-46.0507812 24.679687-46.078125 50.96875v163.644531c.0703125 20.726563 16.921875 37.476563 37.648438 37.417969h61.234374c8.25-.027344 16.253907-2.777344 22.777344-7.824219 5.15625 14.804687 19.105469 24.730469 34.78125 24.753906h71.117188c11.03125-.03125 21.46875-5.007812 28.441406-13.558593 6.972656 8.550781 17.410156 13.527343 28.441406 13.558593h71.117188c15.671875-.019531 29.621094-9.945312 34.78125-24.746093 6.523437 5.046874 14.53125 7.796874 22.777344 7.824218h61.234374c20.730469.058594 37.582032-16.695312 37.648438-37.425781v-163.644531c-.027344-26.289063-19.925781-48.300782-46.078125-50.96875zm-90.457031 140.808594v22.765624c-8.09375.445313-16.625.847657-25.597656 1.203126v-15.28125c0-9.425782-7.640626-17.066407-17.066407-17.066407h-25.601562c-9.425781 0-17.066407 7.640625-17.066407 17.066407v16.84375c-8.25.101562-16.800781.171874-25.597656.195312v-23.292969c.195313-34.386719 28.1875-62.128906 62.574219-62.011719 38.175781 0 48.355469 30.941407 48.355469 49.226563zm73.234375-55.65625h1.707031c11.753906-.859376 23.320312 3.3125 31.8125 11.480468 8.496094 8.171875 13.117188 19.5625 12.714844 31.339844v23.125c-3.855469.746094-9.496094 1.707031-17.066406 2.878906v-13.015625c0-9.425781-7.640626-17.066406-17.066407-17.066406h-25.601562c-9.425781 0-17.066407 7.640625-17.066407 17.066406v19.722657c-7.914062.660156-16.445312 1.289062-25.597656 1.886718v-21.761718c.175782-30.863282 25.300782-55.757813 56.164063-55.65625zm12.101562 107.007812h-25.601562v-15.785156c9.574219-.921875 18.109375-1.847656 25.601562-2.773438zm-25.601562-33.023438v-18.175781h25.601562v15.359375c-7.433593.914063-15.933593 1.878906-25.601562 2.816406zm-102.398438 41.558594h-25.601562v-17.5625c8.859375-.167968 17.417969-.382812 25.601562-.640625zm-25.601562-34.644531v-16.554687h25.601562v15.898437c-8.183593.261719-16.734375.476563-25.601562.65625zm-59.734375.511719c-8.796875 0-17.347656-.09375-25.597656-.195313v-16.871093c0-9.425782-7.640626-17.066407-17.066407-17.066407h-25.601562c-9.425781 0-17.066407 7.640625-17.066407 17.066407v15.28125c-8.964843-.355469-17.5-.757813-25.597656-1.203126v-33.117187c0-18.285156 10.179688-49.226563 48.355469-49.226563 34.386719-.117187 62.378906 27.625 62.574219 62.011719zm-42.664063 34.132812h-25.601562v-18.203125c8.191406.257813 16.75.472657 25.601562.640625zm-25.601562-35.300781v-15.898437h25.601562v16.554687c-8.859375-.179687-17.410156-.394531-25.601562-.65625zm-59.734375-2.824219c-9.164063-.597656-17.695313-1.226562-25.597656-1.886718v-19.722657c0-9.425781-7.640626-17.066406-17.066407-17.066406h-25.601562c-9.425781 0-17.066407 7.640625-17.066407 17.066406v13.015625c-7.570312-1.144531-13.210937-2.132812-17.066406-2.878906v-23.125c-.402344-11.78125 4.222656-23.183594 12.726563-31.351562 8.5-8.171876 20.074219-12.339844 31.835937-11.46875h1.707032c30.847656-.082032 55.953124 24.804687 56.128906 55.65625zm-42.664063 29.589844h-25.601562v-18.558594c7.488281.910156 16.019531 1.835938 25.601562 2.773438zm-25.601562-35.839844v-15.359375h25.601562v18.175781c-9.667969-.9375-18.167969-1.902343-25.601562-2.816406zm47.683593 78.660156h-61.234374c-11.308594.058594-20.519532-9.058593-20.582032-20.367187v-46.082031c4.265625.804687 9.933594 1.761718 17.066406 2.808594v20.820312c0 9.425781 7.640626 17.070312 17.066407 17.070312h25.601562c9.425781 0 17.066407-7.644531 17.066407-17.070312v-14.273438c7.945312.640626 16.433593 1.269532 25.597656 1.851563v34.875c-.070313 11.300781-9.28125 20.410156-20.582032 20.351563zm128.675782 16.914063h-71.117188c-10.929687.046875-19.832031-8.757813-19.90625-19.6875v-51.488281c8.105469.425781 16.636719.820312 25.597656 1.175781v18.800781c0 9.425782 7.640626 17.066406 17.066407 17.066406h25.601562c9.425781 0 17.066407-7.640624 17.066407-17.066406v-17.28125c8.242187.105469 16.808593.164063 25.597656.1875v48.640625c-.09375 10.914063-8.992188 19.699219-19.90625 19.652344zm147.90625-19.6875c-.074219 10.929687-8.976563 19.734375-19.90625 19.6875h-71.117188c-10.929687.046875-19.832031-8.757813-19.90625-19.6875v-48.578125c8.789063 0 17.355469-.085938 25.597656-.1875v17.253906c0 9.425782 7.640626 17.066406 17.066407 17.066406h25.601562c9.425781 0 17.066407-7.640624 17.066407-17.066406v-18.773437c8.972656-.347657 17.503906-.738281 25.597656-1.175781v51.488281zm98.886718 2.757813h-61.234374c-11.300782.058593-20.511719-9.050782-20.582032-20.351563v-34.875c9.164063-.582031 17.652344-1.210937 25.597656-1.851563v14.273438c0 9.425781 7.640626 17.070312 17.066407 17.070312h25.601562c9.425781 0 17.066407-7.644531 17.066407-17.070312v-20.855469c7.132812-1.046875 12.800781-2.003906 17.066406-2.804687v46.078125c-.023438 5.433593-2.207032 10.632812-6.066406 14.457031-3.863282 3.824219-9.082032 5.957031-14.515626 5.929688zm-23.988281-166.878907h-1.707031c-25.066406 0-48.398438 12.808594-61.847656 33.964844-9.84375-24.035156-33.796875-39.230469-59.734375-37.890625-30.023438.015625-57.492188 16.890625-71.074219 43.667969-13.585938-26.785157-41.074219-43.664063-71.109375-43.667969-25.9375-1.339844-49.890625 13.855469-59.730469 37.890625-13.453125-21.15625-36.78125-33.964844-61.851562-33.964844h-1.707032c-16.539062-.65625-32.628906 5.476563-44.535156 16.972657v-34.132813c.066406-17.542969 13.375-32.199219 30.832032-33.953125 19.566406-2.082031 39.183593-3.796875 58.820312-5.289062 1.261719.800781 2.71875 1.242187 4.214844 1.277343 3.703125 0 8.53125 16.554688 8.53125 34.132813 0 4.714844 3.824218 8.535156 8.535156 8.535156s8.535156-3.820312 8.535156-8.535156c.171875-12.625-2.089844-25.167969-6.667968-36.9375 39.148437-2.515625 78.347656-3.882813 117.597656-4.097656v49.570312c0 4.710938 3.824218 8.53125 8.535156 8.53125s8.535156-3.820312 8.535156-8.53125v-49.570312c39.25.171874 78.449219 1.535156 117.597656 4.097656-4.574218 11.769531-6.839843 24.3125-6.667968 36.9375 0 4.714844 3.824218 8.535156 8.535156 8.535156s8.535156-3.820312 8.535156-8.535156c0-17.578125 4.828125-34.132813 8.53125-34.132813 1.496094-.035156 2.949219-.476562 4.214844-1.269531 19.628906 1.492188 39.253906 3.199219 58.828125 5.28125 17.46875 1.757812 30.78125 16.441406 30.824219 33.996094v34.132812c-11.910156-11.519531-28.011719-17.667968-44.570313-17.015625zm0 0" data-original="#000000" class="active-path" data-old_color="#000000" fill="#FFFDFD"/></g> </svg>
