<?xml version="1.0"?>
<svg xmlns="http://www.w3.org/2000/svg" height="512px" viewBox="-25 0 504 504.85342" width="512px"><g><path d="m260.625 26.425781c0-13.90625-11.273438-25.179687-25.183594-25.179687h-209.835937c-13.90625 0-25.179688 11.273437-25.179688 25.179687v25.183594c0 .164063.085938.300781.09375.460937.007813.160157-.09375.292969-.042969.433594l33.574219 310.5c.441407 29.136719 22.167969 53.546875 51.058594 57.359375l6.183594 61.820313c1.257812 12.882812 12.101562 22.699218 25.046875 22.667968h28.371094c12.945312.039063 23.792968-9.777343 25.054687-22.660156l6.183594-61.816406c28.910156-3.796875 50.660156-28.21875 51.101562-57.371094l33.574219-310.5c0-.140625-.050781-.285156-.042969-.433594.007813-.152343.042969-.296874.042969-.460937zm-243.410156 0c0-4.632812 3.757812-8.390625 8.390625-8.390625h209.835937c4.636719 0 8.394532 3.757813 8.394532 8.390625v16.789063h-226.621094zm135.847656 454.085938c-.433594 4.289062-4.042969 7.554687-8.351562 7.554687h-28.371094c-4.308594 0-7.921875-3.265625-8.351563-7.554687l-5.957031-59.59375h57.03125zm15.234375-76.378907h-75.542969c-19.9375-.023437-37.113281-14.046874-41.128906-33.574218h157.796875c-4.011719 19.527344-21.191406 33.550781-41.125 33.574218zm42.804687-50.363281h-161.152343l-31.777344-293.769531h224.707031zm0 0" data-original="#000000" class="active-path" data-old_color="#000000" fill="#FFFDFD"/><path d="m48.789062 187.824219c2.519532 5.921875 5.546876 11.613281 9.046876 17.015625 1.679687 2.734375 3.359374 5.480468 4.886718 8.332031 4.316406 7.550781 7.140625 15.859375 8.316406 24.476563.992188 10.835937 2.835938 21.574218 5.515626 32.121093 2.046874 7.554688 6.847656 25.246094 22.941406 25.246094 8.761718 0 19.738281-6.546875 26.917968-57.59375.945313-6.589844 2.742188-8.015625 4.109376-8.394531 1.371093.394531 3.164062 1.8125 4.105468 8.394531 7.183594 51.046875 18.164063 57.59375 26.953125 57.59375 16.089844 0 20.890625-17.691406 22.921875-25.179687 2.6875-10.566407 4.539063-21.328126 5.53125-32.1875 1.179688-8.617188 4.003906-16.929688 8.316406-24.484376 1.535157-2.84375 3.207032-5.589843 4.886719-8.324218 3.5-5.402344 6.527344-11.097656 9.046875-17.023438 8.746094-22.109375 10.910156-52.484375-9.039062-71.46875-20.597656-17.519531-50.375-19.085937-72.695313-3.820312-22.316406-15.261719-52.089843-13.703125-72.6875 3.808594-20.027343 18.996093-17.820312 49.371093-9.074219 71.488281zm20.613282-59.316407c16.191406-13.289062 39.589844-13.039062 55.492187.597657.089844.082031.199219.097656.292969.175781.089844.074219.125.183594.226562.257812 9.714844 7.367188 17.34375 17.140626 22.132813 28.355469.851563 2.875 3.171875 5.078125 6.089844 5.777344 2.914062.699219 5.984375-.207031 8.046875-2.382813 2.066406-2.175781 2.8125-5.289062 1.960937-8.164062-4.0625-11.214844-10.757812-21.289062-19.523437-29.375 15.339844-8.210938 34.117187-6.335938 47.535156 4.742188 13.957031 13.242187 11.414062 36.929687 5.035156 53.113281-2.171875 5.03125-4.773437 9.867187-7.773437 14.453125-1.828125 2.996094-3.660157 6.007812-5.339844 9.125-5.351563 9.429687-8.832031 19.808594-10.246094 30.558594-.878906 9.996093-2.566406 19.90625-5.035156 29.628906-.839844 3.132812-2.957031 10.871094-5.691406 12.539062-2.351563-3.171875-7.394531-14.6875-11.355469-42.855468-2.519531-17.398438-12.121094-22.058594-19.777344-22.90625-.3125.015624-.628906.042968-.9375.09375-.320312-.050782-.636718-.078126-.957031-.09375-7.65625.839843-17.300781 5.507812-19.785156 22.921874-3.953125 28.160157-8.996094 39.667969-11.347657 42.808594-2.746093-1.679687-4.84375-9.417968-5.707031-12.589844-2.46875-9.703124-4.152343-19.589843-5.035156-29.5625-1.402344-10.734374-4.863281-21.097656-10.191406-30.519531-1.679688-3.121093-3.515625-6.136719-5.347657-9.132812-2.996093-4.582031-5.597656-9.417969-7.769531-14.445313-6.414062-16.214844-8.957031-39.867187 5.007813-53.121094zm0 0" data-original="#000000" class="active-path" data-old_color="#000000" fill="#FFFDFD"/><path d="m85.023438 177.507812c.59375 0 1.183593-.0625 1.761718-.183593 2.179688-.464844 4.082032-1.777344 5.292969-3.644531 1.210937-1.867188 1.628906-4.140626 1.164063-6.316407-1.789063-7.636719 1.617187-15.542969 8.394531-19.492187 4.066406-2.222656 5.566406-7.324219 3.34375-11.394532-2.222657-4.070312-7.324219-5.566406-11.394531-3.34375-13.257813 7.558594-20.046876 22.871094-16.746094 37.769532.839844 3.851562 4.246094 6.597656 8.183594 6.605468zm0 0" data-original="#000000" class="active-path" data-old_color="#000000" fill="#FFFDFD"/><path d="m424.296875 504.851562c16.222656 0 29.375-13.152343 29.375-29.375v-419.671874c.03125-13.726563-9.46875-25.632813-22.859375-28.65625-13.390625-3.019532-27.082031 3.65625-32.949219 16.066406h-44.910156v-.5625c0-14.488282-7.136719-39.296875-54.902344-42.589844-7.15625-.582031-14.035156 2.914062-17.777343 9.039062-3.035157 5.117188-2.792969 11.535157.613281 16.410157 3.34375 5.078125 5.0625 11.058593 4.917969 17.140625v143.8125c0 14.488281 7.132812 39.296875 54.902343 42.589844.457031.03125.917969.050781 1.382813.050781 6.691406.097656 12.933594-3.363281 16.394531-9.09375 3.03125-5.113281 2.792969-11.53125-.613281-16.40625-1.882813-2.835938-3.234375-5.988281-3.980469-9.308594h41.027344v281.179687c0 16.222657 13.152343 29.375 29.378906 29.375zm-29.378906-394.488281h-41.964844v-16.789062h41.964844zm-41.964844 16.785157h41.964844v16.785156h-41.964844zm71.34375-83.933594c6.953125 0 12.589844 5.636718 12.589844 12.589844v419.671874c0 6.953126-5.636719 12.589844-12.589844 12.589844s-12.589844-5.636718-12.589844-12.589844v-419.671874c0-6.953126 5.636719-12.589844 12.589844-12.589844zm-29.378906 16.785156v16.789062h-41.964844v-16.789062zm-53.0625 152.308594c-26.054688-1.796875-39.265625-10.457032-39.265625-25.84375v-143.8125c.148437-9.050782-2.34375-17.945313-7.175782-25.601563.472657-.1875.980469-.269531 1.484376-.242187 26.054687 1.796875 39.265624 10.457031 39.265624 25.84375v143.8125c-.148437 9.050781 2.347657 17.945312 7.175782 25.601562-.472656.1875-.976563.269532-1.484375.242188zm11.097656-34.800782v-16.785156h41.964844v16.785156zm0 0" data-original="#000000" class="active-path" data-old_color="#000000" fill="#FFFDFD"/></g> </svg>
