<?xml version="1.0"?>
<svg xmlns="http://www.w3.org/2000/svg" height="512px" viewBox="0 0 504 504.04416" width="512px"><g><path d="m251.824219 0c-87.089844 0-251.8007815 12.28125-251.8007815 58.753906v67.148438c.015625 5.96875 3.2148435 11.476562 8.3906245 14.453125v10.726562c0 13.90625 11.273438 25.179688 25.183594 25.179688h9.9375c3.542969 10.023437 13 16.742187 23.632813 16.789062h25.183593c4.335938-.027343 8.59375-1.183593 12.34375-3.359375 4.59375 7.300782 12.605469 11.734375 21.226563 11.75h33.574219c4.339844-.023437 8.59375-1.179687 12.347656-3.355468 4.589844 7.296874 12.605469 11.734374 21.226562 11.75h41.96875c6.214844-.023438 12.199219-2.355469 16.785157-6.546876 2.136719 1.960938 4.597656 3.53125 7.269531 4.648438-54.984375 21.429688-122.636719 66.847656-166.652344 101.644531-56.914062 44.847657-89.421875 91.097657-91.578125 130.308594-.050781.347656-.078125.699219-.085937 1.050781v.570313c-.8046878 14.054687 3.058594 27.980469 10.996094 39.609375v.109375c.375.578125.804687 1.121093 1.285156 1.617187.074218.085938.15625.144532.234375.230469l.199219.183594c9.484374 10.023437 21.925781 16.75 35.503906 19.195312 5.492187 1.082031 11.082031 1.613281 16.679687 1.585938 36.621094 0 82.96875-20.882813 132.734375-60.171875 57.425782-45.285156 122.945313-109.746094 149.941406-158.492188h1.015626c16.03125-.019531 29.019531-13.011718 29.039062-29.042968v-54.960938c8.367188-.226562 16.074219-4.605469 20.546875-11.683594 3.753906 2.175782 8.011719 3.332032 12.347656 3.359375h25.179688c10.632812-.046875 20.09375-6.765625 23.636719-16.789062h9.9375c13.90625 0 25.179687-11.273438 25.179687-25.179688v-10.726562c5.175781-2.976563 8.375-8.484375 8.394531-14.453125v-67.148438c0-46.472656-164.714844-58.753906-251.804687-58.753906zm0 16.785156c152.066406 0 235.015625 27.699219 235.015625 41.96875v49.75c-4.074219-3.699218-9.410156-5.707031-14.914063-5.609375-5.402343.015625-10.652343 1.78125-14.964843 5.035157-6.046876-10.667969-17.550782-17.0625-29.804688-16.566407-11.460938.023438-22.378906 4.867188-30.089844 13.34375-6.875-11.195312-19.3125-17.746093-32.433594-17.078125-12.125.035156-23.742187 4.863282-32.324218 13.429688-.835938.835937-1.457032 1.820312-2.214844 2.71875-7.382812-12.9375-21.425781-20.613282-36.300781-19.84375-13.378907-.015625-26.214844 5.292968-35.679688 14.75-2.355469 2.378906-4.472656 4.980468-6.320312 7.769531-9.324219-14.054687-25.066407-22.507813-41.933594-22.519531-14.824219-.769532-28.828125 6.84375-36.234375 19.707031-8.664062-10.121094-21.320312-15.949219-34.640625-15.945313-13.09375-.648437-25.496094 5.890626-32.367187 17.054688-7.707032-8.480469-18.628907-13.328125-30.089844-13.355469-12.265625-.507812-23.785156 5.890625-29.835938 16.570313-4.3125-3.253906-9.566406-5.019532-14.96875-5.035156-5.5-.105469-10.832031 1.886718-14.914062 5.574218v-49.75c0-14.269531 82.953125-41.96875 235.015625-41.96875zm67.148437 118.347656c-28.605468 4.535157-49.820312 28.960938-50.300781 57.917969h-.058594c-4.636719 0-8.394531-3.757812-8.394531-8.394531v-50.359375c-.035156-8.917969 3.488281-17.476563 9.792969-23.78125 6.304687-6.304687 14.867187-9.832031 23.78125-9.792969 6.773437-.328125 13.371093 2.21875 18.164062 7.015625 4.796875 4.792969 7.34375 11.390625 7.015625 18.164063zm-21.320312 150.246094h2.386718c-36.855468 36.832032-76.085937 71.207032-117.441406 102.902344-47.296875 37.34375-90.652344 57.074219-123.386718 56.546875 7.09375-32.003906 36.355468-69.589844 83.617187-106.949219 39.960937-32.503906 81.976563-62.398437 125.785156-89.492187v7.949219c.015625 16.03125 13.007813 29.023437 29.039063 29.042968zm-272.449219-134.296875v-22.386719c0-1.5.308594-9.011718 6.519531-9.011718 6.417969 1.042968 10.914063 6.898437 10.265625 13.371094v26.421874h-8.390625c-4.636718 0-8.394531-3.757812-8.394531-8.394531zm67.148437 25.179688h-25.183593c-4.632813 0-8.390625-3.757813-8.390625-8.394531v-41.964844c-.308594-4.789063 1.457031-9.476563 4.847656-12.871094 3.394531-3.390625 8.082031-5.15625 12.871094-4.847656 13.386718.011718 24.234375 10.863281 24.246094 24.25v35.433594c0 4.636718-3.757813 8.394531-8.390626 8.394531zm67.144532 8.394531h-33.574219c-4.632813 0-8.390625-3.757812-8.390625-8.394531v-50.359375c-.28125-5.773438 1.886719-11.394532 5.972656-15.480469 4.085938-4.085937 9.707032-6.253906 15.480469-5.972656 15.960937.015625 28.894531 12.953125 28.90625 28.914062v42.898438c0 4.636719-3.757813 8.394531-8.394531 8.394531zm75.542968 8.394531h-41.96875c-4.632812 0-8.390624-3.757812-8.390624-8.394531v-58.753906c-.328126-6.773438 2.21875-13.371094 7.011718-18.164063 4.796875-4.796875 11.394532-7.34375 18.167969-7.015625 18.542969 0 33.574219 15.03125 33.574219 33.574219v50.359375c0 4.636719-3.757813 8.394531-8.394532 8.394531zm-132.199218 129.710938c57.261718-45.273438 120.707031-83.597657 165.773437-100.503907v6.800782c-47.707031 28.492187-93.238281 60.476562-136.226562 95.683594-51.5625 40.707031-82.375 81.199218-89.894531 117.726562-8.898438-2.429688-16.890626-7.40625-22.996094-14.320312 7.613281-31.71875 36.636718-68.582032 83.34375-105.386719zm85.195312 107.949219c-53.71875 42.425781-101.886718 62.078124-136.265625 55.269531-9.953125-1.867188-19.058593-6.832031-26.023437-14.183594-4.625-6.710937-7.378906-14.535156-7.980469-22.664063 9.058594 6.339844 19.523437 10.371094 30.492187 11.75h.847657c38.609375 4.910157 88.308593-15.59375 143.914062-59.492187 75.089844-59.289063 123.386719-104.28125 147.097657-137.183594-18.089844 44.8125-88.292969 116.175781-152.082032 166.503907zm173.578125-174.375c-.007812 3.523437-1.535156 6.871093-4.199219 9.183593.503907-1.460937 1.132813-2.980469 1.535157-4.390625 2.027343-7.445312-1.660157-15.257812-8.691407-18.425781-7.035156-3.171875-15.328124-.761719-19.566406 5.683594-4.707031 7.050781-9.851562 13.796875-15.402344 20.203125h-17.628906c-6.765625-.003906-12.25-5.488282-12.261718-12.253906v-62.027344c-.050782-23.453125 18.679687-42.636719 42.128906-43.144532.367187.011719.734375-.015624 1.097656-.082031 8.863281-.445312 17.5 2.878907 23.78125 9.144531 6.28125 6.265626 9.625 14.894532 9.207031 23.757813zm24.507813-80.074219c-.027344 4.34375-3.390625 7.941406-7.722656 8.257812v-.535156c1.082031-25.121094-17.621094-46.726563-42.636719-49.253906v-1.359375c-.027344-7.671875 3.003906-15.042969 8.421875-20.476563 5.417968-5.433593 12.777344-8.484375 20.449218-8.480469 5.78125-.277343 11.410157 1.894532 15.5 5.988282 4.09375 4.089844 6.265626 9.71875 5.988282 15.5zm58.753906-8.394531c0 4.636718-3.757812 8.394531-8.394531 8.394531h-25.179688c-4.636719 0-8.394531-3.757813-8.394531-8.394531v-35.433594c.015625-13.386719 10.863281-24.238282 24.25-24.25 4.789062-.308594 9.476562 1.457031 12.867188 4.847656 3.394531 3.394531 5.160156 8.082031 4.851562 12.871094zm33.574219-16.785157c0 4.636719-3.757813 8.394531-8.394531 8.394531h-8.394532v-26.421874c-.648437-6.472657 3.851563-12.328126 10.265625-13.371094 6.210938 0 6.523438 7.511718 6.523438 9.011718zm0 0" data-original="#000000" class="active-path" data-old_color="#FDFCFC" fill="#FFFDFD"/></g> </svg>
