<?xml version="1.0" encoding="utf-8"?>
<!-- Generator: Adobe Illustrator 13.0.0, SVG Export Plug-In . SVG Version: 6.00 Build 14948)  -->
<!DOCTYPE svg PUBLIC "-//W3C//DTD SVG 1.1//EN" "http://www.w3.org/Graphics/SVG/1.1/DTD/svg11.dtd">
<svg version="1.1" id="Layer_1" xmlns="http://www.w3.org/2000/svg" xmlns:xlink="http://www.w3.org/1999/xlink" x="0px" y="0px"
	 width="111.213px" height="128px" viewBox="0 0 111.213 128" enable-background="new 0 0 111.213 128" xml:space="preserve">
<g>
	<path fill="none" stroke="#263447" stroke-width="3" stroke-linecap="round" stroke-linejoin="round" d="M91.967,85.275
		c12.887-6.312,16.305-16.568,17.619-28.402c1.315-11.835-7.889-22.617-14.201-23.669c-6.311-1.052-13.742,3.944-21.895,3.944
		c-8.153,0-15.584-4.996-21.896-3.944c-6.312,1.052-15.516,11.834-14.201,23.669c1.315,11.834,4.734,22.091,17.62,28.402"/>
	<path fill="none" stroke="#263447" stroke-width="3" stroke-linecap="round" stroke-linejoin="round" d="M100.119,80.541
		c0,0,0.525,27.614-6.049,38.659c-6.574,11.046-9.993,7.364-10.782,3.156s-0.331-34.714-9.798-34.714
		c-9.469,0-9.01,30.506-9.799,34.714s-4.207,7.89-10.782-3.156c-6.575-11.045-6.049-38.659-6.049-38.659"/>
	<polyline fill="none" stroke="#263447" stroke-width="3" stroke-linecap="round" stroke-linejoin="round" points="66.72,22.539 
		62.512,3.604 51.992,14.123 43.577,1.5 39.369,22.539 12.02,14.123 24.643,37.266 1.5,41.474 22.538,54.097 14.123,62.513 
		33.058,73.032 	"/>
</g>
</svg>
